<svg width="64" height="64" viewBox="0 0 64 64" fill="none" xmlns="http://www.w3.org/2000/svg">
<path d="M4.00001 64C1.79087 64 9.26241e-06 62.2091 9.34802e-06 60L9.48895e-06 56.3636C9.57457e-06 54.1545 1.79087 52.3636 4.00001 52.3636L13.4546 52.3636C15.6637 52.3636 17.4546 50.5728 17.4546 48.3636L17.4546 15.6364C17.4546 13.4272 15.6637 11.6364 13.4546 11.6364L4.00001 11.6364C1.79087 11.6364 7.77818e-06 9.8455 6.03291e-06 7.63637L3.1601e-06 4.00001C1.41483e-06 1.79086 1.79086 -1.88599e-06 4 -1.85965e-06L25.0909 -1.60814e-06C27.3 -1.5818e-06 29.0909 1.79086 29.0909 4L29.0909 60C29.0909 62.2091 27.3 64 25.0909 64L4.00001 64Z" fill="black"/>
<path d="M34.9091 4C34.9091 1.79086 36.7 0 38.9091 0L42.5455 0C44.7546 0 46.5455 1.79086 46.5455 4V14.5455C46.5455 16.1521 47.8479 17.4545 49.4545 17.4545V17.4545C51.0612 17.4545 52.3636 16.1521 52.3636 14.5455V4C52.3636 1.79086 54.1545 0 56.3636 0L60 0C62.2091 0 64 1.79086 64 4V25.0909C64 27.3 62.2091 29.0909 60 29.0909H38.9091C36.7 29.0909 34.9091 27.3 34.9091 25.0909L34.9091 4Z" fill="black"/>
<path d="M64 60C64 62.2091 62.2091 64 60 64L56.3636 64C54.1545 64 52.3636 62.2091 52.3636 60L52.3636 49.4545C52.3636 47.8479 51.0612 46.5455 49.4545 46.5455V46.5455C47.8479 46.5455 46.5454 47.8479 46.5454 49.4545L46.5454 60C46.5455 62.2091 44.7546 64 42.5454 64L38.9091 64C36.7 64 34.9091 62.2091 34.9091 60L34.9091 38.9091C34.9091 36.7 36.6999 34.9091 38.9091 34.9091L60 34.9091C62.2091 34.9091 64 36.7 64 38.9091L64 60Z" fill="#7C3AED"/>
<path d="M0 21.4545C0 19.2454 1.79086 17.4545 4 17.4545H7.63636C9.8455 17.4545 11.6364 19.2454 11.6364 21.4545V42.5454C11.6364 44.7546 9.8455 46.5454 7.63636 46.5454H4C1.79087 46.5454 0 44.7546 0 42.5454V21.4545Z" fill="#7C3AED"/>
</svg>
