<svg width="200" height="200" viewBox="0 0 200 200" fill="none" xmlns="http://www.w3.org/2000/svg">
<path d="M12 200C5.37259 200 2.88928e-05 194.627 2.90959e-05 188L2.94748e-05 175.636C2.96779e-05 169.009 5.37261 163.636 12 163.636L42.5455 163.636C49.1729 163.636 54.5455 158.264 54.5455 151.636L54.5455 48.3636C54.5455 41.7362 49.1729 36.3636 42.5455 36.3636L12 36.3636C5.37262 36.3636 2.31132e-05 30.9911 1.78236e-05 24.3636L7.95581e-06 12C2.66625e-06 5.37259 5.37259 2.10756e-06 12 2.35453e-06L78.9091 4.84792e-06C85.5365 5.09489e-06 90.9091 5.37259 90.9091 12L90.9091 188C90.9091 194.627 85.5365 200 78.9091 200L12 200Z" fill="white"/>
<path d="M109.091 12C109.091 5.37257 114.464 0 121.091 0L133.455 0C140.082 0 145.455 5.37258 145.455 12V45.4545C145.455 50.4753 149.525 54.5455 154.545 54.5455V54.5455C159.566 54.5455 163.636 50.4753 163.636 45.4545V12C163.636 5.37259 169.009 0 175.636 0L188 0C194.627 0 200 5.37258 200 12V78.9091C200 85.5365 194.627 90.9091 188 90.9091H121.091C114.463 90.9091 109.091 85.5365 109.091 78.9091L109.091 12Z" fill="white"/>
<path d="M200 188C200 194.627 194.627 200 188 200L175.636 200C169.009 200 163.636 194.627 163.636 188L163.636 154.545C163.636 149.525 159.566 145.455 154.545 145.455V145.455C149.525 145.455 145.455 149.525 145.455 154.545L145.455 188C145.455 194.627 140.082 200 133.455 200L121.091 200C114.463 200 109.091 194.627 109.091 188L109.091 121.091C109.091 114.463 114.463 109.091 121.091 109.091L188 109.091C194.627 109.091 200 114.463 200 121.091L200 188Z" fill="#7C3AED"/>
<path d="M0 66.5454C0 59.918 5.37258 54.5454 12 54.5454H24.3636C30.9911 54.5454 36.3636 59.918 36.3636 66.5454V133.455C36.3636 140.082 30.9911 145.455 24.3636 145.455H12C5.37258 145.455 0 140.082 0 133.455V66.5454Z" fill="#7C3AED"/>
</svg>
