<svg width="251" height="290" viewBox="0 0 251 290" fill="none" xmlns="http://www.w3.org/2000/svg">
<path fill-rule="evenodd" clip-rule="evenodd" d="M125.881 144.721L0.898376 216.88L125.881 289.039L125.881 144.721ZM125.882 289.039L250.864 216.881L125.882 144.722L125.882 289.039Z" fill="#E5D8FB"/>
<path fill-rule="evenodd" clip-rule="evenodd" d="M250.865 72.5672L250.898 72.548L125.916 0.389275L125.916 144.704L125.883 144.723L250.865 216.882L250.865 72.5672Z" fill="#7C3AED"/>
<path fill-rule="evenodd" clip-rule="evenodd" d="M125.913 144.705L0.932335 216.863L0.93234 72.5459L0.934625 72.5472L125.916 0.389259L125.916 144.707L125.913 144.705Z" fill="black"/>
<path fill-rule="evenodd" clip-rule="evenodd" d="M125.877 144.701L153.047 129.015L125.877 113.328V113.328L125.877 113.328L125.877 113.328V113.328L98.7067 129.015L125.877 144.702V144.702L125.877 144.702L125.877 144.702V144.701Z" fill="#7C3AED"/>
<path fill-rule="evenodd" clip-rule="evenodd" d="M153.048 97.6429L153.056 97.6382L125.885 81.9512L125.885 113.324L125.877 113.329L153.048 129.016L153.048 97.6429Z" fill="black"/>
<path fill-rule="evenodd" clip-rule="evenodd" d="M125.884 113.325L98.7138 129.012L98.7138 97.6378L98.7144 97.6382L125.885 81.9514L125.885 113.325L125.884 113.325Z" fill="#E5D8FB"/>
<path fill-rule="evenodd" clip-rule="evenodd" d="M98.7108 191.768L125.881 176.081L98.7108 160.394L98.7108 191.768ZM98.71 160.394L71.5394 176.081L98.71 191.768L98.71 160.394Z" fill="#7C3AED"/>
<path fill-rule="evenodd" clip-rule="evenodd" d="M125.881 144.708L125.889 144.704L98.7179 129.017L98.7179 160.39L98.7104 160.394L125.881 176.081L125.881 144.708Z" fill="black"/>
<path fill-rule="evenodd" clip-rule="evenodd" d="M98.7169 160.391L71.5467 176.078L71.5467 144.704L71.5474 144.704L98.7177 129.017L98.7177 160.391L98.7169 160.391Z" fill="#E5D8FB"/>
<path fill-rule="evenodd" clip-rule="evenodd" d="M153.051 160.392L125.881 176.079L153.051 191.765V191.766L180.222 176.079L153.051 160.392V160.392Z" fill="#7C3AED"/>
<path fill-rule="evenodd" clip-rule="evenodd" d="M153.059 160.388L180.229 144.701L153.059 129.014L153.059 160.388ZM180.222 176.08V144.706L153.051 160.393L180.222 176.08Z" fill="black"/>
<path fill-rule="evenodd" clip-rule="evenodd" d="M153.059 129.015L125.888 144.702L125.889 144.702L125.889 176.076L153.059 160.389L153.059 160.389L153.059 129.015Z" fill="#E5D8FB"/>
</svg>
